<svg version="1.1" id="Layer_1" xmlns="http://www.w3.org/2000/svg" xmlns:xlink="http://www.w3.org/1999/xlink" x="0px" y="0px" viewBox="0 0 237.2 243.6" style="enable-background:new 0 0 237.2 243.6; fill: yellow" xml:space="preserve">
<g>
	<g>
    <path d="M9.1,236c37.2-24.3,62.7-61.6,83.9-99.9c11.6-21,22.5-42.6,31-65.1c4.2-11.3,7.8-22.8,10.3-34.5c1.9-8.7,4.6-22-3.3-28.7
  			c-7.7-6.6-16.8,1.5-22.1,7.1c-7.8,8.3-13.5,18.5-18.7,28.6c-10.9,21.1-19.4,43.5-24.4,66.7c-2.6,11.8-4.3,23.9-5,35.9
  			c-0.6,9.6-0.7,19.5,2.1,28.8c2.6,8.4,8,15.8,16.4,19.1c9.2,3.6,19.3,1.8,28-2.3c11.4-5.3,21.4-14.2,30.7-22.5
  			c10-8.9,19.3-18.6,28-28.8c8.3-9.8,16.8-20,23.5-31c3.7-6,11.9-19.8,2.9-25c-0.9-0.5-2.3-0.4-3,0.4c-6.8,7.7-0.9,17.8,7.7,20.6
  			c11.4,3.7,24.9-0.4,34.2-7.3c2.6-1.9,0.1-6.2-2.5" stroke-width="7" stroke="yellow" fill="none" class="kvBBZTPg_2"></path>
        <style>.kvBBZTPg_0{stroke-dasharray:1968 1970;stroke-dashoffset:1969;animation:kvBBZTPg_draw 666ms linear 0ms forwards;}.kvBBZTPg_1{stroke-dasharray:400 402;stroke-dashoffset:401;animation:kvBBZTPg_draw 666ms linear 166ms forwards;}.kvBBZTPg_2{stroke-dasharray:776 778;stroke-dashoffset:777;animation:kvBBZTPg_draw 666ms linear 633ms forwards;}@keyframes kvBBZTPg_draw{100%{stroke-dashoffset:0;}}@keyframes kvBBZTPg_fade{0%{stroke-opacity:1;}92.3076923076923%{stroke-opacity:1;}100%{stroke-opacity:0;}}</style>
	</g>
</g>
<g>
</g>
<g>
</g>
<g>
</g>
<g>
</g>
<g>
</g>
<g>
</g>
</svg>
